<svg xmlns="http://www.w3.org/2000/svg" viewBox="0 0 143.18 136.5"><defs><style>.cls-1{fill:#2980b9;}.cls-2{fill:#e74c3c;}.cls-3{fill:#ecf0f1;}</style></defs><title>Asset 1</title><g id="Layer_2" data-name="Layer 2"><g id="Camada_1" data-name="Camada 1"><polygon class="cls-1" points="107.39 0 35.8 0 0 62 35.8 124 107.39 124 143.18 62 107.39 0"/><polygon class="cls-2" points="36.09 19.61 4.1 75.02 36.09 130.44 36.09 136.5 36.08 136.5 0.58 75 36.08 13.5 36.09 13.5 36.09 19.61"/><polygon class="cls-2" points="142.6 75 107.1 136.5 107.09 136.5 107.09 130.34 139.03 75.02 107.09 19.7 107.09 13.5 107.1 13.5 142.6 75"/><path class="cls-3" d="M43.86,24.29H51.6V84.5H43.86Zm0,70.36H51.6v7.74H43.86Z"/><path class="cls-3" d="M63.47,24.29H71.2v78.1H63.47Zm4.19,70.9h19A5.48,5.48,0,0,0,91,93.52a6.79,6.79,0,0,0,1.5-4.72V37.88A6.83,6.83,0,0,0,91,33.15a5.51,5.51,0,0,0-4.3-1.66h-19v-7.2H86.35a16,16,0,0,1,7.52,1.64,10.9,10.9,0,0,1,4.72,4.78,16.41,16.41,0,0,1,1.61,7.6V88.37A16.31,16.31,0,0,1,98.57,96a11.1,11.1,0,0,1-4.76,4.78,16,16,0,0,1-7.52,1.64H67.66Z"/></g></g></svg>